<mxfile host="app.diagrams.net" modified="2022-03-16T15:01:48.268Z" agent="5.0 (Windows NT 10.0; Win64; x64) AppleWebKit/537.36 (KHTML, like Gecko) Chrome/99.0.4844.51 Safari/537.36" etag="twlj7gNv7LcGUi1SGYWC" version="16.6.4" type="github">
  <diagram id="C5RBs43oDa-KdzZeNtuy" name="Page-1">
    <mxGraphModel dx="1038" dy="1688" grid="1" gridSize="10" guides="1" tooltips="1" connect="1" arrows="1" fold="1" page="1" pageScale="1" pageWidth="827" pageHeight="1169" math="0" shadow="0">
      <root>
        <mxCell id="WIyWlLk6GJQsqaUBKTNV-0" />
        <mxCell id="WIyWlLk6GJQsqaUBKTNV-1" parent="WIyWlLk6GJQsqaUBKTNV-0" />
        <mxCell id="zkfFHV4jXpPFQw0GAbJ--0" value="UserInterface/controller" style="swimlane;fontStyle=0;align=center;verticalAlign=top;childLayout=stackLayout;horizontal=1;startSize=26;horizontalStack=0;resizeParent=1;resizeLast=0;collapsible=1;marginBottom=0;rounded=0;shadow=0;strokeWidth=1;" parent="WIyWlLk6GJQsqaUBKTNV-1" vertex="1" collapsed="1">
          <mxGeometry x="260" y="-390" width="160" height="26" as="geometry">
            <mxRectangle x="260" y="-170" width="160" height="220" as="alternateBounds" />
          </mxGeometry>
        </mxCell>
        <mxCell id="zkfFHV4jXpPFQw0GAbJ--1" value="-name: String (x9)" style="text;align=left;verticalAlign=top;spacingLeft=4;spacingRight=4;overflow=hidden;rotatable=0;points=[[0,0.5],[1,0.5]];portConstraint=eastwest;" parent="zkfFHV4jXpPFQw0GAbJ--0" vertex="1">
          <mxGeometry y="26" width="160" height="26" as="geometry" />
        </mxCell>
        <mxCell id="zkfFHV4jXpPFQw0GAbJ--2" value="-description: String (x9)" style="text;align=left;verticalAlign=top;spacingLeft=4;spacingRight=4;overflow=hidden;rotatable=0;points=[[0,0.5],[1,0.5]];portConstraint=eastwest;rounded=0;shadow=0;html=0;" parent="zkfFHV4jXpPFQw0GAbJ--0" vertex="1">
          <mxGeometry y="52" width="160" height="26" as="geometry" />
        </mxCell>
        <mxCell id="zkfFHV4jXpPFQw0GAbJ--4" value="" style="line;html=1;strokeWidth=1;align=left;verticalAlign=middle;spacingTop=-1;spacingLeft=3;spacingRight=3;rotatable=0;labelPosition=right;points=[];portConstraint=eastwest;" parent="zkfFHV4jXpPFQw0GAbJ--0" vertex="1">
          <mxGeometry y="78" width="160" height="8" as="geometry" />
        </mxCell>
        <mxCell id="zkfFHV4jXpPFQw0GAbJ--5" value="+welcomeMessage(): void&#xa;+helpMenu(): void&#xa;+mainMenu(): void&#xa;+lookAround(): void&#xa;+newLine(): void&#xa;+getName(): String (x9)&#xa;+getDescription(): String (x9)" style="text;align=left;verticalAlign=top;spacingLeft=4;spacingRight=4;overflow=hidden;rotatable=0;points=[[0,0.5],[1,0.5]];portConstraint=eastwest;" parent="zkfFHV4jXpPFQw0GAbJ--0" vertex="1">
          <mxGeometry y="86" width="160" height="108" as="geometry" />
        </mxCell>
        <mxCell id="zkfFHV4jXpPFQw0GAbJ--6" value="Adventure&#xa;" style="swimlane;fontStyle=0;align=center;verticalAlign=top;childLayout=stackLayout;horizontal=1;startSize=26;horizontalStack=0;resizeParent=1;resizeLast=0;collapsible=1;marginBottom=0;rounded=0;shadow=0;strokeWidth=1;" parent="WIyWlLk6GJQsqaUBKTNV-1" vertex="1" collapsed="1">
          <mxGeometry x="260" y="-470" width="160" height="26" as="geometry">
            <mxRectangle x="260" y="-320" width="160" height="90" as="alternateBounds" />
          </mxGeometry>
        </mxCell>
        <mxCell id="zkfFHV4jXpPFQw0GAbJ--9" value="" style="line;html=1;strokeWidth=1;align=left;verticalAlign=middle;spacingTop=-1;spacingLeft=3;spacingRight=3;rotatable=0;labelPosition=right;points=[];portConstraint=eastwest;" parent="zkfFHV4jXpPFQw0GAbJ--6" vertex="1">
          <mxGeometry y="26" width="160" height="8" as="geometry" />
        </mxCell>
        <mxCell id="zkfFHV4jXpPFQw0GAbJ--13" value="Player" style="swimlane;fontStyle=0;align=center;verticalAlign=top;childLayout=stackLayout;horizontal=1;startSize=26;horizontalStack=0;resizeParent=1;resizeLast=0;collapsible=1;marginBottom=0;rounded=0;shadow=0;strokeWidth=1;" parent="WIyWlLk6GJQsqaUBKTNV-1" vertex="1" collapsed="1">
          <mxGeometry x="250" y="-90" width="170" height="26" as="geometry">
            <mxRectangle x="250" y="-90" width="170" height="188" as="alternateBounds" />
          </mxGeometry>
        </mxCell>
        <mxCell id="dRhHNlCPHHymV1BK2kCy-11" value="-currentRoom: Room" style="text;align=left;verticalAlign=top;spacingLeft=4;spacingRight=4;overflow=hidden;rotatable=0;points=[[0,0.5],[1,0.5]];portConstraint=eastwest;" vertex="1" parent="zkfFHV4jXpPFQw0GAbJ--13">
          <mxGeometry y="26" width="170" height="26" as="geometry" />
        </mxCell>
        <mxCell id="zkfFHV4jXpPFQw0GAbJ--15" value="" style="line;html=1;strokeWidth=1;align=left;verticalAlign=middle;spacingTop=-1;spacingLeft=3;spacingRight=3;rotatable=0;labelPosition=right;points=[];portConstraint=eastwest;" parent="zkfFHV4jXpPFQw0GAbJ--13" vertex="1">
          <mxGeometry y="52" width="170" height="18" as="geometry" />
        </mxCell>
        <mxCell id="dRhHNlCPHHymV1BK2kCy-12" value="+setCurrentRoom(): void&#xa;+getCurrentRoom(): Room&#xa;+movePlayer(): String&#xa;+checkValidDirection(): String&#xa;+findNewRoom(): Room" style="text;align=left;verticalAlign=top;spacingLeft=4;spacingRight=4;overflow=hidden;rotatable=0;points=[[0,0.5],[1,0.5]];portConstraint=eastwest;" vertex="1" parent="zkfFHV4jXpPFQw0GAbJ--13">
          <mxGeometry y="70" width="170" height="108" as="geometry" />
        </mxCell>
        <mxCell id="zkfFHV4jXpPFQw0GAbJ--17" value="Map" style="swimlane;fontStyle=0;align=center;verticalAlign=top;childLayout=stackLayout;horizontal=1;startSize=26;horizontalStack=0;resizeParent=1;resizeLast=0;collapsible=1;marginBottom=0;rounded=0;shadow=0;strokeWidth=1;" parent="WIyWlLk6GJQsqaUBKTNV-1" vertex="1" collapsed="1">
          <mxGeometry x="490" y="-110" width="160" height="26" as="geometry">
            <mxRectangle x="508" y="120" width="160" height="216" as="alternateBounds" />
          </mxGeometry>
        </mxCell>
        <mxCell id="zkfFHV4jXpPFQw0GAbJ--18" value="-starterRoom: Room" style="text;align=left;verticalAlign=top;spacingLeft=4;spacingRight=4;overflow=hidden;rotatable=0;points=[[0,0.5],[1,0.5]];portConstraint=eastwest;" parent="zkfFHV4jXpPFQw0GAbJ--17" vertex="1">
          <mxGeometry y="26" width="160" height="26" as="geometry" />
        </mxCell>
        <mxCell id="zkfFHV4jXpPFQw0GAbJ--23" value="" style="line;html=1;strokeWidth=1;align=left;verticalAlign=middle;spacingTop=-1;spacingLeft=3;spacingRight=3;rotatable=0;labelPosition=right;points=[];portConstraint=eastwest;" parent="zkfFHV4jXpPFQw0GAbJ--17" vertex="1">
          <mxGeometry y="52" width="160" height="8" as="geometry" />
        </mxCell>
        <mxCell id="dRhHNlCPHHymV1BK2kCy-9" value="+getStarterRoom(): Room&#xa;+setStarterRoom(): void&#xa;+createCaves(): void" style="text;align=left;verticalAlign=top;spacingLeft=4;spacingRight=4;overflow=hidden;rotatable=0;points=[[0,0.5],[1,0.5]];portConstraint=eastwest;" vertex="1" parent="zkfFHV4jXpPFQw0GAbJ--17">
          <mxGeometry y="60" width="160" height="108" as="geometry" />
        </mxCell>
        <mxCell id="dRhHNlCPHHymV1BK2kCy-0" value="Torch" style="swimlane;fontStyle=0;align=center;verticalAlign=top;childLayout=stackLayout;horizontal=1;startSize=34;horizontalStack=0;resizeParent=1;resizeLast=0;collapsible=1;marginBottom=0;rounded=0;shadow=0;strokeWidth=1;" vertex="1" collapsed="1" parent="WIyWlLk6GJQsqaUBKTNV-1">
          <mxGeometry x="20" y="-300" width="170" height="26" as="geometry">
            <mxRectangle x="50" y="-84" width="160" height="386" as="alternateBounds" />
          </mxGeometry>
        </mxCell>
        <mxCell id="dRhHNlCPHHymV1BK2kCy-13" value="-isOn: boolean&#xa;-name: String" style="text;align=left;verticalAlign=top;spacingLeft=4;spacingRight=4;overflow=hidden;rotatable=0;points=[[0,0.5],[1,0.5]];portConstraint=eastwest;" vertex="1" parent="dRhHNlCPHHymV1BK2kCy-0">
          <mxGeometry y="34" width="160" height="108" as="geometry" />
        </mxCell>
        <mxCell id="dRhHNlCPHHymV1BK2kCy-2" value="" style="line;html=1;strokeWidth=1;align=left;verticalAlign=middle;spacingTop=-1;spacingLeft=3;spacingRight=3;rotatable=0;labelPosition=right;points=[];portConstraint=eastwest;" vertex="1" parent="dRhHNlCPHHymV1BK2kCy-0">
          <mxGeometry y="142" width="160" height="136" as="geometry" />
        </mxCell>
        <mxCell id="dRhHNlCPHHymV1BK2kCy-15" value="+Torch()&#xa;+toString(): String&#xa;+pushDevice(): void" style="text;align=left;verticalAlign=top;spacingLeft=4;spacingRight=4;overflow=hidden;rotatable=0;points=[[0,0.5],[1,0.5]];portConstraint=eastwest;" vertex="1" parent="dRhHNlCPHHymV1BK2kCy-0">
          <mxGeometry y="278" width="160" height="108" as="geometry" />
        </mxCell>
        <mxCell id="dRhHNlCPHHymV1BK2kCy-3" value="Room&#xa;" style="swimlane;fontStyle=0;align=center;verticalAlign=top;childLayout=stackLayout;horizontal=1;startSize=26;horizontalStack=0;resizeParent=1;resizeLast=0;collapsible=1;marginBottom=0;rounded=0;shadow=0;strokeWidth=1;" vertex="1" collapsed="1" parent="WIyWlLk6GJQsqaUBKTNV-1">
          <mxGeometry x="390" y="-290" width="170" height="26" as="geometry">
            <mxRectangle x="330" y="-10" width="160" height="410" as="alternateBounds" />
          </mxGeometry>
        </mxCell>
        <mxCell id="dRhHNlCPHHymV1BK2kCy-17" value="-name: String&#xa;-description: String&#xa;-north: Room&#xa;-south: Room&#xa;-east: Room&#xa;-west: Room" style="text;align=left;verticalAlign=top;spacingLeft=4;spacingRight=4;overflow=hidden;rotatable=0;points=[[0,0.5],[1,0.5]];portConstraint=eastwest;" vertex="1" parent="dRhHNlCPHHymV1BK2kCy-3">
          <mxGeometry y="26" width="160" height="108" as="geometry" />
        </mxCell>
        <mxCell id="dRhHNlCPHHymV1BK2kCy-5" value="" style="line;html=1;strokeWidth=1;align=left;verticalAlign=middle;spacingTop=-1;spacingLeft=3;spacingRight=3;rotatable=0;labelPosition=right;points=[];portConstraint=eastwest;" vertex="1" parent="dRhHNlCPHHymV1BK2kCy-3">
          <mxGeometry y="134" width="160" height="56" as="geometry" />
        </mxCell>
        <mxCell id="dRhHNlCPHHymV1BK2kCy-19" value="+Room()&#xa;+getName(): String&#xa;+getDescription(): String&#xa;&#xa;+getWest(): Room&#xa;+getEast(): Room&#xa;+getNorth(): Room&#xa;+getSouth(): Room&#xa;&#xa;setWest(): void&#xa;setEast(): void&#xa;setNorth(): void&#xa;setSouth(): void&#xa;" style="text;align=left;verticalAlign=top;spacingLeft=4;spacingRight=4;overflow=hidden;rotatable=0;points=[[0,0.5],[1,0.5]];portConstraint=eastwest;" vertex="1" parent="dRhHNlCPHHymV1BK2kCy-3">
          <mxGeometry y="190" width="160" height="210" as="geometry" />
        </mxCell>
      </root>
    </mxGraphModel>
  </diagram>
</mxfile>
